<svg width="363" height="99" viewBox="0 0 363 99" fill="none" xmlns="http://www.w3.org/2000/svg">
<path d="M121.477 0C125.008 0.125 127.789 0.1875 129.82 0.1875C132.773 0.1875 135.414 0.125 137.742 0C137.805 0.25 137.836 0.421875 137.836 0.515625C137.836 0.6875 137.805 0.882813 137.742 1.10156C135.68 1.16406 134.281 1.32031 133.547 1.57031C132.828 1.80469 132.469 2.21875 132.469 2.8125C132.469 2.82812 132.578 3.21875 132.797 3.98438L142.547 26.625H142.781L151.922 3.67969C152.016 3.44531 152.062 3.14062 152.062 2.76562C152.062 2.25 151.781 1.88281 151.219 1.66406C150.656 1.44531 149.688 1.25781 148.312 1.10156C148.25 0.757812 148.219 0.546875 148.219 0.46875C148.219 0.34375 148.25 0.1875 148.312 0C150.328 0.09375 152.148 0.140625 153.773 0.140625C155.555 0.140625 157.336 0.09375 159.117 0C159.18 0.1875 159.211 0.34375 159.211 0.46875C159.211 0.71875 159.18 0.929688 159.117 1.10156C157.945 1.21094 156.969 1.45312 156.188 1.82812C155.422 2.1875 154.828 2.80469 154.406 3.67969L141.727 35.1328H140.625L127.008 3.98438C126.289 2.34375 124.445 1.38281 121.477 1.10156C121.414 0.820312 121.383 0.625 121.383 0.515625C121.383 0.359375 121.414 0.1875 121.477 0ZM160.758 15.1641C163.789 14.8516 166.43 14.2109 168.68 13.2422C169.07 13.3984 169.344 13.6016 169.5 13.8516C169.5 21.9609 169.562 27.7578 169.688 31.2422C169.703 31.6484 169.82 32 170.039 32.2969C170.273 32.5781 170.602 32.7969 171.023 32.9531C171.445 33.1094 171.797 33.2266 172.078 33.3047C172.359 33.3672 172.727 33.4297 173.18 33.4922C173.273 33.6797 173.32 33.875 173.32 34.0781C173.32 34.2812 173.273 34.4531 173.18 34.5938C171.117 34.5 169.117 34.4531 167.18 34.4531C165.273 34.4531 163.289 34.5 161.227 34.5938C161.164 34.3438 161.133 34.1719 161.133 34.0781C161.133 34 161.164 33.8047 161.227 33.4922C161.742 33.4297 162.164 33.3672 162.492 33.3047C162.82 33.2266 163.227 33.1094 163.711 32.9531C164.195 32.7969 164.562 32.5781 164.812 32.2969C165.062 32 165.195 31.6484 165.211 31.2422C165.273 29.6953 165.305 27.8203 165.305 25.6172C165.305 24.8828 165.297 23.6328 165.281 21.8672C165.266 20.1016 165.258 18.5547 165.258 17.2266C164.367 16.6797 162.867 16.3594 160.758 16.2656C160.695 16.0156 160.664 15.8203 160.664 15.6797C160.664 15.5859 160.695 15.4141 160.758 15.1641ZM164.438 5.36719C164.438 4.57031 164.719 3.89062 165.281 3.32812C165.859 2.76562 166.539 2.48438 167.32 2.48438C168.117 2.48438 168.797 2.76562 169.359 3.32812C169.922 3.89062 170.203 4.57031 170.203 5.36719C170.203 6.14844 169.922 6.82812 169.359 7.40625C168.797 7.96875 168.117 8.25 167.32 8.25C166.539 8.25 165.859 7.96875 165.281 7.40625C164.719 6.82812 164.438 6.14844 164.438 5.36719ZM188.977 33.4922C189.07 33.6797 189.117 33.875 189.117 34.0781C189.117 34.2344 189.07 34.4062 188.977 34.5938C186.914 34.5 184.914 34.4531 182.977 34.4531C181.07 34.4531 179.086 34.5 177.023 34.5938C176.961 34.3438 176.93 34.1719 176.93 34.0781C176.93 34 176.961 33.8047 177.023 33.4922C177.539 33.4297 177.961 33.3672 178.289 33.3047C178.617 33.2266 179.023 33.1094 179.508 32.9531C179.992 32.7969 180.359 32.5781 180.609 32.2969C180.859 32 180.992 31.6484 181.008 31.2422C181.07 29.6953 181.102 27.8203 181.102 25.6172C181.102 24.8828 181.094 23.6328 181.078 21.8672C181.062 20.1016 181.055 18.5547 181.055 17.2266C180.164 16.6797 178.664 16.3594 176.555 16.2656C176.492 16.0156 176.461 15.8203 176.461 15.6797C176.461 15.5859 176.492 15.4141 176.555 15.1641C179.586 14.8516 182.227 14.2109 184.477 13.2422C184.867 13.3984 185.141 13.6016 185.297 13.8516V17.5547C186.812 16.2266 188.266 15.1641 189.656 14.3672C191.047 13.5547 192.453 13.1484 193.875 13.1484C195.656 13.1484 196.914 13.6484 197.648 14.6484C198.398 15.6484 198.789 17.2109 198.82 19.3359L199.055 31.2422C199.07 31.6484 199.188 32 199.406 32.2969C199.641 32.5781 199.969 32.7969 200.391 32.9531C200.828 33.1094 201.188 33.2266 201.469 33.3047C201.75 33.3672 202.117 33.4297 202.57 33.4922C202.633 33.8047 202.664 34.0156 202.664 34.125C202.664 34.25 202.633 34.4062 202.57 34.5938C200.555 34.5 198.695 34.4531 196.992 34.4531C195.336 34.4531 193.5 34.5 191.484 34.5938C191.422 34.3438 191.391 34.1562 191.391 34.0312C191.391 33.9219 191.422 33.7422 191.484 33.4922C191.891 33.4297 192.227 33.3672 192.492 33.3047C192.773 33.2266 193.086 33.1094 193.43 32.9531C193.789 32.7969 194.055 32.5781 194.227 32.2969C194.414 32 194.508 31.6484 194.508 31.2422L194.555 20.1094C194.555 17.2812 193.703 15.8672 192 15.8672C190.406 15.8672 188.172 16.9297 185.297 19.0547C185.297 23.6016 185.359 27.6641 185.484 31.2422C185.5 31.6484 185.617 32 185.836 32.2969C186.07 32.5781 186.398 32.7969 186.82 32.9531C187.242 33.1094 187.594 33.2266 187.875 33.3047C188.156 33.3672 188.523 33.4297 188.977 33.4922ZM197.156 3.02344H198.586C197.57 6.35156 195.828 8.01562 193.359 8.01562C193.062 8.01562 192.727 7.98438 192.352 7.92188C191.992 7.85938 191.68 7.79688 191.414 7.73438C191.164 7.67188 190.508 7.46094 189.445 7.10156C188.383 6.74219 187.523 6.5625 186.867 6.5625C185.867 6.5625 184.992 7.04688 184.242 8.01562H182.953C184.203 4.875 185.883 3.30469 187.992 3.30469C188.742 3.30469 189.93 3.54688 191.555 4.03125C193.195 4.5 194.258 4.73438 194.742 4.73438C195.258 4.73438 195.742 4.59375 196.195 4.3125C196.648 4.03125 196.969 3.60156 197.156 3.02344ZM207.867 19.0547C207.867 17.3359 208.648 15.9219 210.211 14.8125C211.789 13.7031 213.648 13.1484 215.789 13.1484C218.414 13.1484 220.258 13.6719 221.32 14.7188C222.398 15.7656 222.938 17.5312 222.938 20.0156V29.7422C222.938 30.6172 223.258 31.0547 223.898 31.0547C224.414 31.0547 225.07 30.4297 225.867 29.1797C226.43 29.2266 226.812 29.4766 227.016 29.9297C226.906 30.0859 226.719 30.3672 226.453 30.7734C226.188 31.1797 225.992 31.4688 225.867 31.6406C225.742 31.8125 225.547 32.0781 225.281 32.4375C225.016 32.7812 224.797 33.0391 224.625 33.2109C224.469 33.3828 224.25 33.5859 223.969 33.8203C223.703 34.0547 223.453 34.2344 223.219 34.3594C223 34.4688 222.742 34.5625 222.445 34.6406C222.148 34.7344 221.852 34.7812 221.555 34.7812C220.773 34.7812 220.125 34.5 219.609 33.9375C219.109 33.375 218.812 32.5078 218.719 31.3359C218.703 31.3516 218.461 31.5781 217.992 32.0156C217.523 32.4531 217.195 32.75 217.008 32.9062C216.836 33.0469 216.5 33.3047 216 33.6797C215.516 34.0391 215.102 34.2969 214.758 34.4531C214.414 34.6094 213.984 34.7578 213.469 34.8984C212.953 35.0547 212.445 35.1328 211.945 35.1328C211.148 35.1328 210.438 35.0234 209.812 34.8047C209.203 34.5859 208.727 34.3203 208.383 34.0078C208.039 33.6953 207.758 33.3359 207.539 32.9297C207.32 32.5078 207.172 32.125 207.094 31.7812C207.031 31.4375 207 31.0938 207 30.75C207 29.7031 207.172 28.8203 207.516 28.1016C207.875 27.3828 208.531 26.7109 209.484 26.0859C210.453 25.4609 211.641 24.9062 213.047 24.4219C214.453 23.9375 216.344 23.3906 218.719 22.7812V19.5234C218.719 17.9453 218.367 16.7656 217.664 15.9844C216.977 15.2031 216.047 14.8125 214.875 14.8125C213.828 14.8125 212.945 15.0234 212.227 15.4453C211.523 15.8516 211.094 16.3281 210.938 16.875C212.469 17.1094 213.234 17.9453 213.234 19.3828C213.234 20.0391 213 20.6172 212.531 21.1172C212.062 21.6172 211.406 21.8672 210.562 21.8672C209.859 21.8672 209.234 21.625 208.688 21.1406C208.141 20.6406 207.867 19.9453 207.867 19.0547ZM218.719 29.1797V24.2812C217.281 24.6094 216.094 24.9688 215.156 25.3594C214.219 25.7344 213.5 26.1484 213 26.6016C212.516 27.0547 212.18 27.5234 211.992 28.0078C211.805 28.4766 211.711 29.0234 211.711 29.6484C211.711 30.4297 211.938 31.0469 212.391 31.5C212.859 31.9375 213.43 32.1562 214.102 32.1562C215.664 32.1562 217.203 31.1641 218.719 29.1797ZM0.140625 63C3.64062 63.125 6.4375 63.1875 8.53125 63.1875C12.4375 63.0625 14.8359 63 15.7266 63C17.1797 63 18.5469 63.0625 19.8281 63.1875C21.1094 63.3125 22.4297 63.5469 23.7891 63.8906C25.1641 64.2188 26.4062 64.6562 27.5156 65.2031C28.625 65.7344 29.6875 66.4453 30.7031 67.3359C31.7188 68.2266 32.5703 69.2578 33.2578 70.4297C33.9453 71.6016 34.4922 73.0156 34.8984 74.6719C35.3047 76.3125 35.5078 78.1328 35.5078 80.1328C35.3828 82.0547 35.0469 83.8203 34.5 85.4297C33.9688 87.0391 33.2812 88.4297 32.4375 89.6016C31.6094 90.7734 30.625 91.8203 29.4844 92.7422C28.3438 93.6641 27.1484 94.4141 25.8984 94.9922C24.6641 95.5703 23.3203 96.0469 21.8672 96.4219C20.4297 96.7969 19.0234 97.0625 17.6484 97.2188C16.2891 97.375 14.8828 97.4531 13.4297 97.4531C7.57031 97.4531 3.125 97.5 0.09375 97.5938C0.03125 97.4062 0 97.25 0 97.125C0 97.0156 0.03125 96.8047 0.09375 96.4922C0.5625 96.4453 0.9375 96.4062 1.21875 96.375C1.5 96.3438 1.88281 96.2891 2.36719 96.2109C2.86719 96.1328 3.26562 96.0469 3.5625 95.9531C3.875 95.8438 4.19531 95.7109 4.52344 95.5547C4.85156 95.3984 5.09375 95.2109 5.25 94.9922C5.42188 94.7734 5.50781 94.5234 5.50781 94.2422C5.69531 89.3516 5.78906 84.4219 5.78906 79.4531C5.78906 74.3906 5.71094 70.0234 5.55469 66.3516C5.53906 65.9453 5.35938 65.6016 5.01562 65.3203C4.67188 65.0234 4.17188 64.7969 3.51562 64.6406C2.875 64.4844 2.32812 64.375 1.875 64.3125C1.4375 64.2344 0.859375 64.1641 0.140625 64.1016C0.078125 63.8203 0.046875 63.625 0.046875 63.5156C0.046875 63.4219 0.078125 63.25 0.140625 63ZM11.0391 66.3516C10.8359 71.6641 10.7344 76.6094 10.7344 81.1875C10.7344 83.7188 10.8203 88.5625 10.9922 95.7188C11.6641 95.75 12.625 95.7656 13.875 95.7656C16.4062 95.7656 18.6562 95.3828 20.625 94.6172C22.5938 93.8359 24.2109 92.75 25.4766 91.3594C26.7422 89.9688 27.6953 88.3281 28.3359 86.4375C28.9922 84.5312 29.3203 82.4297 29.3203 80.1328C29.3203 78.9453 29.2266 77.7812 29.0391 76.6406C28.8516 75.5 28.5547 74.3359 28.1484 73.1484C27.7422 71.9609 27.1797 70.8672 26.4609 69.8672C25.7422 68.8672 24.8828 67.9766 23.8828 67.1953C22.8984 66.3984 21.6797 65.7812 20.2266 65.3438C18.7891 64.8906 17.1953 64.6641 15.4453 64.6641C13.8359 64.6641 12.3672 64.7656 11.0391 64.9688V66.3516ZM40.0078 76.6641C40.5703 76.6953 41.1328 76.7266 41.6953 76.7578C42.2578 76.7891 42.7031 76.8125 43.0312 76.8281C43.3594 76.8438 43.6641 76.8516 43.9453 76.8516C44.1797 76.8516 44.4531 76.8438 44.7656 76.8281C45.0781 76.8125 45.5 76.7891 46.0312 76.7578C46.5781 76.7266 47.1016 76.6953 47.6016 76.6641C47.8828 76.7578 48.1094 77 48.2812 77.3906C48.2656 77.5156 48.2344 77.7031 48.1875 77.9531C48.1562 78.1875 48.125 78.4766 48.0938 78.8203C48.0781 79.1484 48.0703 79.5547 48.0703 80.0391L48.0234 91.1719C48.0234 93.9844 48.875 95.3906 50.5781 95.3906C52.1562 95.3906 54.3984 94.3516 57.3047 92.2734C57.3047 87.6172 57.2344 83.5391 57.0938 80.0391C57.0938 79.7578 57.0391 79.5078 56.9297 79.2891C56.8203 79.0703 56.6484 78.8828 56.4141 78.7266C56.1953 78.5703 55.9922 78.4453 55.8047 78.3516C55.6328 78.2422 55.375 78.1484 55.0312 78.0703C54.6875 77.9766 54.4453 77.9219 54.3047 77.9062C54.1641 77.875 53.9297 77.8281 53.6016 77.7656C53.5391 77.5156 53.5078 77.3281 53.5078 77.2031C53.5078 77.0938 53.5391 76.9141 53.6016 76.6641C54.1484 76.6953 54.7031 76.7266 55.2656 76.7578C55.8438 76.7891 56.2969 76.8125 56.625 76.8281C56.9531 76.8438 57.2578 76.8516 57.5391 76.8516C57.7734 76.8516 58.0469 76.8438 58.3594 76.8281C58.6719 76.8125 59.0938 76.7891 59.625 76.7578C60.1719 76.7266 60.6953 76.6953 61.1953 76.6641C61.2734 76.7109 61.3359 76.7578 61.3828 76.8047C61.4453 76.8359 61.4922 76.8828 61.5234 76.9453C61.5703 76.9922 61.6016 77.0312 61.6172 77.0625C61.6328 77.0781 61.6562 77.1328 61.6875 77.2266C61.7188 77.3047 61.7422 77.3594 61.7578 77.3906C61.6328 78.2344 61.5703 79.1172 61.5703 80.0391C61.4766 82.3359 61.4297 84.2031 61.4297 85.6406C61.4297 86.3906 61.4453 87.6484 61.4766 89.4141C61.5078 91.1797 61.5234 92.7266 61.5234 94.0547C62.4141 94.5703 63.9141 94.8906 66.0234 95.0156C66.1016 95.4062 66.1406 95.6094 66.1406 95.625C66.1406 95.7188 66.1016 95.8828 66.0234 96.1172C63.0703 96.3984 60.4297 97.0391 58.1016 98.0391C57.6953 97.8672 57.4297 97.6562 57.3047 97.4062V93.75C55.7422 95.0938 54.2656 96.1641 52.875 96.9609C51.5 97.7422 50.1094 98.1328 48.7031 98.1328C46.9219 98.1328 45.6562 97.6328 44.9062 96.6328C44.1719 95.6328 43.7891 94.0625 43.7578 91.9219L43.5703 80.0391C43.5391 79.6797 43.4688 79.4141 43.3594 79.2422C43.2656 79.0547 43.1016 78.8828 42.8672 78.7266C42.6484 78.5703 42.4453 78.4453 42.2578 78.3516C42.0703 78.2422 41.8047 78.1484 41.4609 78.0703C41.1172 77.9766 40.875 77.9219 40.7344 77.9062C40.5938 77.875 40.3516 77.8281 40.0078 77.7656C39.9453 77.5156 39.9141 77.3281 39.9141 77.2031C39.9141 77.0938 39.9453 76.9141 40.0078 76.6641ZM82.8047 97.5938C80.7422 97.5 78.3281 97.4531 75.5625 97.4531C73.6562 97.4531 71.6719 97.5 69.6094 97.5938C69.5469 97.3438 69.5156 97.1719 69.5156 97.0781C69.5156 97 69.5469 96.8047 69.6094 96.4922C70.125 96.4297 70.5391 96.3672 70.8516 96.3047C71.1797 96.2266 71.5859 96.1094 72.0703 95.9531C72.5703 95.7969 72.9453 95.5781 73.1953 95.2969C73.4453 95 73.5781 94.6484 73.5938 94.2422C73.6562 92.6953 73.6875 87.6094 73.6875 78.9844H70.5234C70.4297 78.7344 70.3828 78.4609 70.3828 78.1641C70.3828 77.8203 70.4297 77.5312 70.5234 77.2969H73.6875V74.8359C73.6875 73.1172 73.9062 71.4922 74.3438 69.9609C74.7969 68.4141 75.4453 67.0312 76.2891 65.8125C77.1484 64.5938 78.2734 63.625 79.6641 62.9062C81.0703 62.1875 82.6484 61.8281 84.3984 61.8281C86.0234 61.8281 87.3828 62.2422 88.4766 63.0703C89.5859 63.8828 90.1406 64.9609 90.1406 66.3047C90.1406 67.1328 89.8672 67.8516 89.3203 68.4609C88.7734 69.0703 88.0703 69.375 87.2109 69.375C86.3828 69.375 85.7188 69.1719 85.2188 68.7656C84.7344 68.3438 84.4922 67.8125 84.4922 67.1719C84.4922 66.7188 84.625 66.2812 84.8906 65.8594C85.1719 65.4375 85.5625 65.1406 86.0625 64.9688C85.75 64.4531 85.375 64.125 84.9375 63.9844C84.5 63.8281 83.8203 63.75 82.8984 63.75C81.4609 63.75 80.2578 64.2656 79.2891 65.2969C78.3359 66.3281 77.8594 67.6875 77.8594 69.375V77.2969H82.9453C83.0391 77.5312 83.0859 77.8203 83.0859 78.1641C83.0859 78.4609 83.0391 78.7344 82.9453 78.9844H77.8594C77.8594 86.7188 77.9219 91.8047 78.0469 94.2422C78.0625 94.6484 78.2188 95 78.5156 95.2969C78.8125 95.5781 79.2422 95.7969 79.8047 95.9531C80.3672 96.1094 80.8516 96.2266 81.2578 96.3047C81.6641 96.3672 82.1797 96.4297 82.8047 96.4922C82.8672 96.8047 82.8984 97.0156 82.8984 97.125C82.8984 97.25 82.8672 97.4062 82.8047 97.5938ZM98.1797 76.1484C99.7266 76.1484 101.117 76.4219 102.352 76.9688C103.602 77.5156 104.664 78.2734 105.539 79.2422C106.414 80.2109 107.086 81.375 107.555 82.7344C108.023 84.0781 108.258 85.5469 108.258 87.1406C108.258 90.3906 107.344 93.0312 105.516 95.0625C103.703 97.1094 101.258 98.1328 98.1797 98.1328C96.6484 98.1328 95.2578 97.8672 94.0078 97.3359C92.7734 96.7891 91.7188 96.0312 90.8438 95.0625C89.9688 94.0781 89.2891 92.9141 88.8047 91.5703C88.3359 90.2266 88.1016 88.75 88.1016 87.1406C88.1016 85.5469 88.3359 84.0781 88.8047 82.7344C89.2734 81.375 89.9375 80.2109 90.7969 79.2422C91.6719 78.2734 92.7344 77.5156 93.9844 76.9688C95.2344 76.4219 96.6328 76.1484 98.1797 76.1484ZM98.1797 77.6719C96.5859 77.6719 95.3125 78.4453 94.3594 79.9922C93.4219 81.5391 92.9531 83.9219 92.9531 87.1406C92.9531 90.3594 93.4219 92.7422 94.3594 94.2891C95.3125 95.8203 96.5859 96.5859 98.1797 96.5859C99.7734 96.5859 101.039 95.8125 101.977 94.2656C102.93 92.7188 103.406 90.3438 103.406 87.1406C103.406 85.5312 103.281 84.1328 103.031 82.9453C102.781 81.7578 102.43 80.7734 101.977 79.9922C101.523 79.2109 100.977 78.6328 100.336 78.2578C99.6953 77.8672 98.9766 77.6719 98.1797 77.6719ZM112.523 76.6641C113.086 76.6953 113.648 76.7266 114.211 76.7578C114.773 76.7891 115.219 76.8125 115.547 76.8281C115.875 76.8438 116.18 76.8516 116.461 76.8516C116.695 76.8516 116.969 76.8438 117.281 76.8281C117.594 76.8125 118.016 76.7891 118.547 76.7578C119.094 76.7266 119.617 76.6953 120.117 76.6641C120.398 76.7578 120.625 77 120.797 77.3906C120.781 77.5156 120.75 77.7031 120.703 77.9531C120.672 78.1875 120.641 78.4766 120.609 78.8203C120.594 79.1484 120.586 79.5547 120.586 80.0391L120.539 91.1719C120.539 93.9844 121.391 95.3906 123.094 95.3906C124.672 95.3906 126.914 94.3516 129.82 92.2734C129.82 87.6172 129.75 83.5391 129.609 80.0391C129.609 79.7578 129.555 79.5078 129.445 79.2891C129.336 79.0703 129.164 78.8828 128.93 78.7266C128.711 78.5703 128.508 78.4453 128.32 78.3516C128.148 78.2422 127.891 78.1484 127.547 78.0703C127.203 77.9766 126.961 77.9219 126.82 77.9062C126.68 77.875 126.445 77.8281 126.117 77.7656C126.055 77.5156 126.023 77.3281 126.023 77.2031C126.023 77.0938 126.055 76.9141 126.117 76.6641C126.664 76.6953 127.219 76.7266 127.781 76.7578C128.359 76.7891 128.812 76.8125 129.141 76.8281C129.469 76.8438 129.773 76.8516 130.055 76.8516C130.289 76.8516 130.562 76.8438 130.875 76.8281C131.188 76.8125 131.609 76.7891 132.141 76.7578C132.688 76.7266 133.211 76.6953 133.711 76.6641C133.789 76.7109 133.852 76.7578 133.898 76.8047C133.961 76.8359 134.008 76.8828 134.039 76.9453C134.086 76.9922 134.117 77.0312 134.133 77.0625C134.148 77.0781 134.172 77.1328 134.203 77.2266C134.234 77.3047 134.258 77.3594 134.273 77.3906C134.148 78.2344 134.086 79.1172 134.086 80.0391C133.992 82.3359 133.945 84.2031 133.945 85.6406C133.945 86.3906 133.961 87.6484 133.992 89.4141C134.023 91.1797 134.039 92.7266 134.039 94.0547C134.93 94.5703 136.43 94.8906 138.539 95.0156C138.617 95.4062 138.656 95.6094 138.656 95.625C138.656 95.7188 138.617 95.8828 138.539 96.1172C135.586 96.3984 132.945 97.0391 130.617 98.0391C130.211 97.8672 129.945 97.6562 129.82 97.4062V93.75C128.258 95.0938 126.781 96.1641 125.391 96.9609C124.016 97.7422 122.625 98.1328 121.219 98.1328C119.438 98.1328 118.172 97.6328 117.422 96.6328C116.688 95.6328 116.305 94.0625 116.273 91.9219L116.086 80.0391C116.055 79.6797 115.984 79.4141 115.875 79.2422C115.781 79.0547 115.617 78.8828 115.383 78.7266C115.164 78.5703 114.961 78.4453 114.773 78.3516C114.586 78.2422 114.32 78.1484 113.977 78.0703C113.633 77.9766 113.391 77.9219 113.25 77.9062C113.109 77.875 112.867 77.8281 112.523 77.7656C112.461 77.5156 112.43 77.3281 112.43 77.2031C112.43 77.0938 112.461 76.9141 112.523 76.6641ZM142.125 78.1641C145.156 77.8516 147.797 77.2109 150.047 76.2422C150.438 76.3984 150.711 76.6016 150.867 76.8516V80.8828C151.445 79.7891 152.305 78.7266 153.445 77.6953C154.602 76.6641 155.805 76.1484 157.055 76.1484C157.992 76.1484 158.75 76.4297 159.328 76.9922C159.922 77.5391 160.219 78.2969 160.219 79.2656C160.219 80.1875 159.945 80.9062 159.398 81.4219C158.852 81.9375 158.164 82.1953 157.336 82.1953C156.57 82.1953 155.938 81.9531 155.438 81.4688C154.953 80.9688 154.688 80.3125 154.641 79.5C153.984 79.7812 153.234 80.4062 152.391 81.375C151.562 82.3438 151.055 83.3047 150.867 84.2578C150.867 87.7422 150.93 91.0703 151.055 94.2422C151.07 94.6484 151.219 95 151.5 95.2969C151.781 95.5781 152.195 95.7969 152.742 95.9531C153.289 96.1094 153.742 96.2266 154.102 96.3047C154.461 96.3672 154.93 96.4297 155.508 96.4922C155.602 96.6797 155.648 96.875 155.648 97.0781C155.648 97.2344 155.602 97.4062 155.508 97.5938C153.164 97.5 150.844 97.4531 148.547 97.4531C146.641 97.4531 144.656 97.5 142.594 97.5938C142.531 97.3438 142.5 97.1719 142.5 97.0781C142.5 97 142.531 96.8047 142.594 96.4922C143.109 96.4297 143.531 96.3672 143.859 96.3047C144.188 96.2266 144.594 96.1094 145.078 95.9531C145.562 95.7969 145.93 95.5781 146.18 95.2969C146.43 95 146.562 94.6484 146.578 94.2422C146.641 92.6953 146.672 90.8203 146.672 88.6172C146.672 87.8828 146.664 86.6328 146.648 84.8672C146.633 83.1016 146.625 81.5547 146.625 80.2266C145.734 79.6797 144.234 79.3594 142.125 79.2656C142.062 79.0156 142.031 78.8203 142.031 78.6797C142.031 78.5859 142.062 78.4141 142.125 78.1641ZM187.641 63.75C190.594 63.4688 193.234 62.8281 195.562 61.8281C195.969 62 196.234 62.2109 196.359 62.4609C196.359 80.1641 196.43 90.7578 196.57 94.2422C196.586 94.6484 196.703 95 196.922 95.2969C197.156 95.5781 197.484 95.7969 197.906 95.9531C198.328 96.1094 198.68 96.2266 198.961 96.3047C199.242 96.3672 199.609 96.4297 200.062 96.4922C200.125 96.7422 200.156 96.9375 200.156 97.0781C200.156 97.1719 200.125 97.3438 200.062 97.5938C199.516 97.5625 198.953 97.5312 198.375 97.5C197.812 97.4688 197.367 97.4453 197.039 97.4297C196.711 97.4141 196.406 97.4062 196.125 97.4062C195.891 97.4062 195.625 97.4141 195.328 97.4297C195.031 97.4453 194.625 97.4688 194.109 97.5C193.594 97.5312 193.086 97.5625 192.586 97.5938C192.508 97.5625 192.438 97.5234 192.375 97.4766C192.328 97.4453 192.289 97.4219 192.258 97.4062C192.242 97.375 192.219 97.3359 192.188 97.2891C192.156 97.2266 192.133 97.1875 192.117 97.1719C192.102 97.1562 192.078 97.1094 192.047 97.0312C192.031 96.9375 192.016 96.8828 192 96.8672C192.062 96.4922 192.094 95.6484 192.094 94.3359C189.516 96.8672 187.133 98.1328 184.945 98.1328C182.539 98.1328 180.578 97.2266 179.062 95.4141C177.547 93.6016 176.789 91.1328 176.789 88.0078C176.789 86.9297 176.914 85.8516 177.164 84.7734C177.414 83.6953 177.828 82.6328 178.406 81.5859C178.984 80.5391 179.695 79.6172 180.539 78.8203C181.383 78.0234 182.453 77.3828 183.75 76.8984C185.047 76.3984 186.484 76.1484 188.062 76.1484C189.234 76.1484 190.609 76.3984 192.188 76.8984C192.156 73.9297 192.141 70.2344 192.141 65.8125C191.25 65.2969 189.75 64.9766 187.641 64.8516C187.578 64.6016 187.547 64.4141 187.547 64.2891C187.547 64.1797 187.578 64 187.641 63.75ZM187.195 95.0625C188.758 95.0625 190.406 94.2266 192.141 92.5547C192.172 91.0234 192.188 88.125 192.188 83.8594V80.4609C191.109 78.6016 189.461 77.6719 187.242 77.6719C186.773 77.6719 186.305 77.7422 185.836 77.8828C185.367 78.0234 184.867 78.3047 184.336 78.7266C183.805 79.1484 183.336 79.6875 182.93 80.3438C182.539 81 182.211 81.9141 181.945 83.0859C181.68 84.2422 181.547 85.5781 181.547 87.0938C181.547 89.4062 182.023 91.3125 182.977 92.8125C183.945 94.3125 185.352 95.0625 187.195 95.0625ZM222 85.0312H209.227C209.164 85.9688 209.133 86.7969 209.133 87.5156C209.18 89.8438 209.859 91.7109 211.172 93.1172C212.484 94.5078 214.242 95.2031 216.445 95.2031C217.039 95.2031 217.594 95.1406 218.109 95.0156C218.625 94.875 219.047 94.7188 219.375 94.5469C219.719 94.375 220.07 94.125 220.43 93.7969C220.789 93.4688 221.047 93.2109 221.203 93.0234C221.375 92.8203 221.602 92.5234 221.883 92.1328C222.164 91.7266 222.352 91.4688 222.445 91.3594C222.82 91.4375 223.125 91.6094 223.359 91.875C222.578 93.9688 221.367 95.5391 219.727 96.5859C218.086 97.6172 216.305 98.1328 214.383 98.1328C213.43 98.1328 212.5 98.0078 211.594 97.7578C210.703 97.5234 209.836 97.1328 208.992 96.5859C208.148 96.0391 207.414 95.3672 206.789 94.5703C206.164 93.7578 205.664 92.75 205.289 91.5469C204.914 90.3281 204.727 88.9844 204.727 87.5156C204.727 84.2188 205.734 81.5 207.75 79.3594C209.766 77.2188 212.242 76.1484 215.18 76.1484C216.477 76.1484 217.602 76.3359 218.555 76.7109C219.523 77.0703 220.273 77.5625 220.805 78.1875C221.352 78.8125 221.75 79.5 222 80.25C222.266 80.9844 222.398 81.7734 222.398 82.6172C222.398 83.3984 222.266 84.2031 222 85.0312ZM214.617 77.6719C213.539 77.6719 212.516 78.1484 211.547 79.1016C210.594 80.0547 209.906 81.5 209.484 83.4375H217.922C218.078 82.8438 218.156 82.3281 218.156 81.8906C218.156 80.6719 217.875 79.6641 217.312 78.8672C216.75 78.0703 215.852 77.6719 214.617 77.6719ZM258.633 62.2266C259.867 62.2266 261.094 62.3125 262.312 62.4844C263.547 62.6406 264.727 62.8359 265.852 63.0703C266.992 63.2891 268.07 63.5078 269.086 63.7266C270.102 63.9453 271.016 64.1016 271.828 64.1953C271.641 64.7578 271.547 65.75 271.547 67.1719C271.547 69.9375 271.961 72.3359 272.789 74.3672C272.695 74.6484 272.406 74.8203 271.922 74.8828L270.914 72.7266C270.414 71.6484 269.812 70.5859 269.109 69.5391C268.406 68.4766 267.562 67.5312 266.578 66.7031C265.594 65.8594 264.445 65.1797 263.133 64.6641C261.836 64.1484 260.336 63.8906 258.633 63.8906C257.164 63.8906 255.859 64.1328 254.719 64.6172C253.578 65.1016 252.578 65.7578 251.719 66.5859C250.859 67.3984 250.133 68.3516 249.539 69.4453C248.945 70.5234 248.461 71.6719 248.086 72.8906C247.727 74.1094 247.461 75.3594 247.289 76.6406C247.133 77.9219 247.055 79.1641 247.055 80.3672C247.055 82.3672 247.312 84.2812 247.828 86.1094C248.359 87.9375 249.18 89.5547 250.289 90.9609C251.398 92.3516 252.805 93.4609 254.508 94.2891C256.227 95.1172 258.273 95.5312 260.648 95.5312C265.195 95.5312 268.633 94.1094 270.961 91.2656C271.211 91.2656 271.414 91.3359 271.57 91.4766C271.742 91.6172 271.828 91.7891 271.828 91.9922C271.078 93.1016 270.164 94.0625 269.086 94.875C268.023 95.6875 266.891 96.3594 265.688 96.8906C264.484 97.4062 263.266 97.7891 262.031 98.0391C260.812 98.2891 259.68 98.4141 258.633 98.4141C257.492 98.4141 256.258 98.2891 254.93 98.0391C253.617 97.8047 252.297 97.4062 250.969 96.8438C249.656 96.2812 248.391 95.5469 247.172 94.6406C245.969 93.7188 244.898 92.5938 243.961 91.2656C243.023 89.9219 242.273 88.3516 241.711 86.5547C241.148 84.7578 240.867 82.6953 240.867 80.3672C240.867 78.0234 241.148 75.9531 241.711 74.1562C242.273 72.3438 243.023 70.7656 243.961 69.4219C244.914 68.0781 246 66.9531 247.219 66.0469C248.453 65.125 249.727 64.3828 251.039 63.8203C252.352 63.2422 253.664 62.8359 254.977 62.6016C256.289 62.3516 257.508 62.2266 258.633 62.2266ZM287.086 76.1484C288.633 76.1484 290.023 76.4219 291.258 76.9688C292.508 77.5156 293.57 78.2734 294.445 79.2422C295.32 80.2109 295.992 81.375 296.461 82.7344C296.93 84.0781 297.164 85.5469 297.164 87.1406C297.164 90.3906 296.25 93.0312 294.422 95.0625C292.609 97.1094 290.164 98.1328 287.086 98.1328C285.555 98.1328 284.164 97.8672 282.914 97.3359C281.68 96.7891 280.625 96.0312 279.75 95.0625C278.875 94.0781 278.195 92.9141 277.711 91.5703C277.242 90.2266 277.008 88.75 277.008 87.1406C277.008 85.5469 277.242 84.0781 277.711 82.7344C278.18 81.375 278.844 80.2109 279.703 79.2422C280.578 78.2734 281.641 77.5156 282.891 76.9688C284.141 76.4219 285.539 76.1484 287.086 76.1484ZM287.086 77.6719C285.492 77.6719 284.219 78.4453 283.266 79.9922C282.328 81.5391 281.859 83.9219 281.859 87.1406C281.859 90.3594 282.328 92.7422 283.266 94.2891C284.219 95.8203 285.492 96.5859 287.086 96.5859C288.68 96.5859 289.945 95.8125 290.883 94.2656C291.836 92.7188 292.312 90.3438 292.312 87.1406C292.312 85.5312 292.188 84.1328 291.938 82.9453C291.688 81.7578 291.336 80.7734 290.883 79.9922C290.43 79.2109 289.883 78.6328 289.242 78.2578C288.602 77.8672 287.883 77.6719 287.086 77.6719ZM314.25 96.4922C314.344 96.6797 314.391 96.875 314.391 97.0781C314.391 97.2344 314.344 97.4062 314.25 97.5938C312.188 97.5 310.188 97.4531 308.25 97.4531C306.344 97.4531 304.359 97.5 302.297 97.5938C302.234 97.3438 302.203 97.1719 302.203 97.0781C302.203 97 302.234 96.8047 302.297 96.4922C302.812 96.4297 303.234 96.3672 303.562 96.3047C303.891 96.2266 304.297 96.1094 304.781 95.9531C305.266 95.7969 305.633 95.5781 305.883 95.2969C306.133 95 306.266 94.6484 306.281 94.2422C306.344 92.6953 306.375 90.8203 306.375 88.6172C306.375 87.8828 306.367 86.6328 306.352 84.8672C306.336 83.1016 306.328 81.5547 306.328 80.2266C305.438 79.6797 303.938 79.3594 301.828 79.2656C301.766 79.0156 301.734 78.8203 301.734 78.6797C301.734 78.5859 301.766 78.4141 301.828 78.1641C304.859 77.8516 307.5 77.2109 309.75 76.2422C310.141 76.3984 310.414 76.6016 310.57 76.8516V80.5547C312.086 79.2266 313.539 78.1641 314.93 77.3672C316.32 76.5547 317.727 76.1484 319.148 76.1484C320.93 76.1484 322.188 76.6484 322.922 77.6484C323.672 78.6484 324.062 80.2109 324.094 82.3359L324.328 94.2422C324.344 94.6484 324.461 95 324.68 95.2969C324.914 95.5781 325.242 95.7969 325.664 95.9531C326.102 96.1094 326.461 96.2266 326.742 96.3047C327.023 96.3672 327.391 96.4297 327.844 96.4922C327.906 96.8047 327.938 97.0156 327.938 97.125C327.938 97.25 327.906 97.4062 327.844 97.5938C325.828 97.5 323.969 97.4531 322.266 97.4531C320.609 97.4531 318.773 97.5 316.758 97.5938C316.695 97.3438 316.664 97.1562 316.664 97.0312C316.664 96.9219 316.695 96.7422 316.758 96.4922C317.164 96.4297 317.5 96.3672 317.766 96.3047C318.047 96.2266 318.359 96.1094 318.703 95.9531C319.062 95.7969 319.328 95.5781 319.5 95.2969C319.688 95 319.781 94.6484 319.781 94.2422L319.828 83.1094C319.828 80.2812 318.977 78.8672 317.273 78.8672C315.68 78.8672 313.445 79.9297 310.57 82.0547C310.57 86.6016 310.633 90.6641 310.758 94.2422C310.773 94.6484 310.891 95 311.109 95.2969C311.344 95.5781 311.672 95.7969 312.094 95.9531C312.516 96.1094 312.867 96.2266 313.148 96.3047C313.43 96.3672 313.797 96.4297 314.25 96.4922ZM337.594 72.1641C337.75 72.1016 337.93 72.0703 338.133 72.0703C338.336 72.0703 338.547 72.1016 338.766 72.1641V77.2969H345.867C345.961 77.5312 346.008 77.8203 346.008 78.1641C346.008 78.4609 345.961 78.7344 345.867 78.9844H338.766V91.5C338.766 93.9688 339.898 95.2031 342.164 95.2031C343.023 95.2031 343.758 95.0391 344.367 94.7109C344.992 94.3828 345.68 93.8906 346.43 93.2344C346.82 93.2812 347.078 93.4688 347.203 93.7969C346.516 95.0312 345.5 96.0625 344.156 96.8906C342.812 97.7188 341.336 98.1328 339.727 98.1328C335.945 98.1328 334.055 95.8438 334.055 91.2656V78.9844H331.172C331.109 78.7031 331.078 78.5234 331.078 78.4453C331.078 78.4297 331.109 78.25 331.172 77.9062C331.922 77.5312 332.492 77.2266 332.883 76.9922C333.289 76.7422 333.797 76.3906 334.406 75.9375C335.031 75.4844 335.594 74.9531 336.094 74.3438C336.609 73.7188 337.109 72.9922 337.594 72.1641ZM349.734 78.1641C352.766 77.8516 355.406 77.2109 357.656 76.2422C358.047 76.3984 358.32 76.6016 358.477 76.8516C358.477 84.9609 358.539 90.7578 358.664 94.2422C358.68 94.6484 358.797 95 359.016 95.2969C359.25 95.5781 359.578 95.7969 360 95.9531C360.422 96.1094 360.773 96.2266 361.055 96.3047C361.336 96.3672 361.703 96.4297 362.156 96.4922C362.25 96.6797 362.297 96.875 362.297 97.0781C362.297 97.2812 362.25 97.4531 362.156 97.5938C360.094 97.5 358.094 97.4531 356.156 97.4531C354.25 97.4531 352.266 97.5 350.203 97.5938C350.141 97.3438 350.109 97.1719 350.109 97.0781C350.109 97 350.141 96.8047 350.203 96.4922C350.719 96.4297 351.141 96.3672 351.469 96.3047C351.797 96.2266 352.203 96.1094 352.688 95.9531C353.172 95.7969 353.539 95.5781 353.789 95.2969C354.039 95 354.172 94.6484 354.188 94.2422C354.25 92.6953 354.281 90.8203 354.281 88.6172C354.281 87.8828 354.273 86.6328 354.258 84.8672C354.242 83.1016 354.234 81.5547 354.234 80.2266C353.344 79.6797 351.844 79.3594 349.734 79.2656C349.672 79.0156 349.641 78.8203 349.641 78.6797C349.641 78.5859 349.672 78.4141 349.734 78.1641ZM353.414 68.3672C353.414 67.5703 353.695 66.8906 354.258 66.3281C354.836 65.7656 355.516 65.4844 356.297 65.4844C357.094 65.4844 357.773 65.7656 358.336 66.3281C358.898 66.8906 359.18 67.5703 359.18 68.3672C359.18 69.1484 358.898 69.8281 358.336 70.4062C357.773 70.9688 357.094 71.25 356.297 71.25C355.516 71.25 354.836 70.9688 354.258 70.4062C353.695 69.8281 353.414 69.1484 353.414 68.3672Z" fill="white"/>
</svg>
